# xmcd
#
# Track frame offsets: 
#        150
#        23283
#        40553
#        60517
#        82690
#        96709
#        117156
#        140729
#        158524
#        174610
#
# Disc length: 2547 seconds
#
# Revision: 3
# Processed by: cddbd v1.5.2PL0 Copyright (c) Steve Scherf et al.
# Submitted via: ExactAudioCopy v0.95a4
#
DISCID=6f09f10a
DTITLE=UFO - The Visitor
DYEAR=2009
DGENRE=Hard Rock
TTITLE0=Saving Me
TTITLE1=On the Waterfront
TTITLE2=Hell Driver
TTITLE3=Stop Breaking Down
TTITLE4=Rock Ready
TTITLE5=Living Proof
TTITLE6=Can't Buy a Thrill
TTITLE7=Forsaken
TTITLE8=Villains and Thieves
TTITLE9=Stranger in Town
EXTD=YEAR: 2009
EXTT0=
EXTT1=
EXTT2=
EXTT3=
EXTT4=
EXTT5=
EXTT6=
EXTT7=
EXTT8=
EXTT9=
PLAYORDER=
